<svg width="33" height="33" viewBox="0 0 33 33" fill="none" xmlns="http://www.w3.org/2000/svg">
<path d="M14.86 1.64504C15.7649 0.737319 17.2351 0.737318 18.14 1.64504C18.8032 2.31019 19.8024 2.50894 20.6696 2.14819C21.853 1.65588 23.2112 2.21848 23.6999 3.40342C24.0581 4.2717 24.9051 4.8377 25.8444 4.83627C27.1261 4.83432 28.1657 5.87388 28.1637 7.15563C28.1623 8.09487 28.7283 8.94195 29.5966 9.30006C30.7815 9.78876 31.3441 11.147 30.8518 12.3304C30.4911 13.1976 30.6898 14.1968 31.355 14.86C32.2627 15.7649 32.2627 17.2351 31.355 18.14C30.6898 18.8032 30.4911 19.8024 30.8518 20.6696C31.3441 21.853 30.7815 23.2112 29.5966 23.6999C28.7283 24.0581 28.1623 24.9051 28.1637 25.8444C28.1657 27.1261 27.1261 28.1657 25.8444 28.1637C24.9051 28.1623 24.0581 28.7283 23.6999 29.5966C23.2112 30.7815 21.853 31.3441 20.6696 30.8518C19.8024 30.4911 18.8032 30.6898 18.14 31.355C17.2351 32.2627 15.7649 32.2627 14.86 31.355C14.1968 30.6898 13.1976 30.4911 12.3304 30.8518C11.147 31.3441 9.78876 30.7815 9.30006 29.5966C8.94195 28.7283 8.09487 28.1623 7.15563 28.1637C5.87388 28.1657 4.83432 27.1261 4.83627 25.8444C4.8377 24.9051 4.2717 24.0581 3.40342 23.6999C2.21848 23.2112 1.65588 21.853 2.14819 20.6696C2.50894 19.8024 2.31019 18.8032 1.64504 18.14C0.737318 17.2351 0.737319 15.7649 1.64504 14.86C2.31018 14.1968 2.50894 13.1976 2.14819 12.3304C1.65588 11.147 2.21848 9.78876 3.40342 9.30006C4.2717 8.94195 4.8377 8.09487 4.83627 7.15563C4.83432 5.87388 5.87388 4.83432 7.15563 4.83627C8.09487 4.8377 8.94195 4.2717 9.30006 3.40342C9.78876 2.21848 11.147 1.65588 12.3304 2.14819C13.1976 2.50894 14.1968 2.31019 14.86 1.64504Z" fill="#6E54FF"/>
</svg>
