<svg width="11" height="11" viewBox="0 0 11 11" fill="none" xmlns="http://www.w3.org/2000/svg">
<path d="M4.95332 0.548345C5.25497 0.245773 5.74503 0.245773 6.04668 0.548345V0.548345C6.26772 0.770062 6.60079 0.836313 6.88985 0.716063V0.716063C7.28433 0.55196 7.73708 0.739495 7.89998 1.13447V1.13447C8.01935 1.4239 8.30171 1.61257 8.61479 1.61209V1.61209C9.04204 1.61144 9.38856 1.95796 9.38791 2.38521V2.38521C9.38743 2.69829 9.5761 2.98065 9.86553 3.10002V3.10002C10.2605 3.26292 10.448 3.71567 10.2839 4.11015V4.11015C10.1637 4.39921 10.2299 4.73228 10.4517 4.95332V4.95332C10.7542 5.25497 10.7542 5.74503 10.4517 6.04668V6.04668C10.2299 6.26772 10.1637 6.60079 10.2839 6.88985V6.88985C10.448 7.28433 10.2605 7.73708 9.86553 7.89998V7.89998C9.5761 8.01935 9.38743 8.30171 9.38791 8.61479V8.61479C9.38856 9.04204 9.04204 9.38856 8.61479 9.38791V9.38791C8.30171 9.38743 8.01935 9.5761 7.89998 9.86553V9.86553C7.73708 10.2605 7.28433 10.448 6.88985 10.2839V10.2839C6.60079 10.1637 6.26772 10.2299 6.04668 10.4517V10.4517C5.74503 10.7542 5.25497 10.7542 4.95332 10.4517V10.4517C4.73228 10.2299 4.39921 10.1637 4.11015 10.2839V10.2839C3.71567 10.448 3.26292 10.2605 3.10002 9.86553V9.86553C2.98065 9.5761 2.69829 9.38743 2.38521 9.38791V9.38791C1.95796 9.38856 1.61144 9.04204 1.61209 8.61479V8.61479C1.61257 8.30171 1.4239 8.01935 1.13447 7.89998V7.89998C0.739494 7.73708 0.55196 7.28433 0.716063 6.88985V6.88985C0.836313 6.60079 0.770062 6.26772 0.548345 6.04668V6.04668C0.245773 5.74503 0.245773 5.25497 0.548345 4.95332V4.95332C0.770062 4.73228 0.836313 4.39921 0.716063 4.11015V4.11015C0.55196 3.71567 0.739495 3.26292 1.13447 3.10002V3.10002C1.4239 2.98065 1.61257 2.69829 1.61209 2.38521V2.38521C1.61144 1.95796 1.95796 1.61144 2.38521 1.61209V1.61209C2.69829 1.61257 2.98065 1.4239 3.10002 1.13447V1.13447C3.26292 0.739495 3.71567 0.55196 4.11015 0.716063V0.716063C4.39921 0.836313 4.73228 0.770062 4.95332 0.548345V0.548345Z" fill="#EF6522"/>
</svg>
