<svg width="435" height="116" viewBox="0 0 435 116" fill="none" xmlns="http://www.w3.org/2000/svg">
<path d="M197.398 99.8232L197.432 111.998L149.277 112.156L149.713 99.7235L197.398 99.8232Z" fill="#6349AE"/>
<path d="M340.398 99.8232L340.432 111.998L292.277 112.156L292.713 99.7235L340.398 99.8232Z" fill="#6349AE"/>
<path d="M50.667 99.7617L48.2786 112.261L10.2788 111.762L12.7788 99.7617L50.667 99.7617Z" fill="#6349AE"/>
<path d="M16.2776 16.4434L28.7774 16.4418L12.101 98.8499L0.277474 96.4425L16.2776 16.4434Z" fill="#6349AE"/>
<path d="M66.5549 16.8887L79.0548 16.8871L62.3783 99.2952L50.5548 96.8878L66.5549 16.8887Z" fill="#6349AE"/>
<path d="M97.2776 3.94336L110.096 3.89485L88.2869 111.521L76.2729 109.075L97.2776 3.94336Z" fill="#6349AE"/>
<path d="M187.668 4.99609L200.487 4.94759L178.677 112.574L166.663 110.128L187.668 4.99609Z" fill="#6349AE"/>
<path d="M232.778 3.44354L248.278 3.44321L222.278 110.944L208.778 110.943L232.778 3.44354Z" fill="#6349AE"/>
<path d="M287.778 3.94336L301.278 3.94441L276.778 112.388L263.278 112.388L287.778 3.94336Z" fill="#6349AE"/>
<path d="M243.232 16.2917L258.278 16.4431L253.278 41.4424L238.778 41.4415L243.232 16.2917Z" fill="#6349AE"/>
<path d="M253.277 41.4425L264.777 42.4434L259.277 68.4422L247.277 68.4422L253.277 41.4425Z" fill="#6349AE"/>
<path d="M259.277 69.4428L280.777 69.4421L275.278 98.9434L253.278 98.9434L259.277 69.4428Z" fill="#6349AE"/>
<path d="M68.7776 1.75698L68.7773 15.1587L29.7773 15.4434L30.1594 1.75698L68.7776 1.75698Z" fill="#6349AE"/>
<path d="M146.418 2.83487L146.456 15.0093L96.8409 15.1557L97.2875 2.72379L146.418 2.83487Z" fill="#6349AE"/>
<path d="M216.396 2.82319L216.43 14.9976L168.277 15.1556L168.714 2.72355L216.396 2.82319Z" fill="#6349AE"/>
<path d="M330.668 4.99609L343.487 4.94759L321.677 112.574L309.663 110.128L330.668 4.99609Z" fill="#6349AE"/>
<path d="M359.396 2.82319L359.43 14.9976L311.277 15.1556L311.714 2.72355L359.396 2.82319Z" fill="#6349AE"/>
<path d="M134.61 55.1105L134.234 67.87L89.2548 66.6777L90.0795 53.6614L134.61 55.1105Z" fill="#6349AE"/>
<path d="M148.278 53.5547L136.278 54.055L143.278 17.5538L155.778 17.554L148.278 53.5547Z" fill="#6349AE"/>
<path d="M371.555 16.4375L384.055 16.4359L367.378 98.8441L355.555 96.4367L371.555 16.4375Z" fill="#6349AE"/>
<path d="M421.832 16.8828L434.332 16.8813L417.656 99.2894L405.832 96.882L421.832 16.8828Z" fill="#6349AE"/>
<path d="M424.055 1.75112L424.055 15.1528L385.055 15.4375L385.437 1.75112L424.055 1.75112Z" fill="#6349AE"/>
<path d="M405.944 99.7559L403.556 112.255L365.556 111.756L368.056 99.7559L405.944 99.7559Z" fill="#6349AE"/>
<path d="M0.277344 96.4434L12.2773 97.9434V99.4434H0.277344V96.4434Z" fill="#6349AE"/>
<path d="M50.5547 96.8887L62.5547 98.3887V99.8887H50.5547V96.8887Z" fill="#6349AE"/>
<path d="M76.2773 108.943L88.2773 111.443V112.443H76.2773V108.943Z" fill="#6349AE"/>
</svg>
